<svg width="34" height="40" viewBox="0 0 34 40" fill="none" xmlns="http://www.w3.org/2000/svg">
<path d="M19.7111 16.051C36.5467 11.8969 39.1773 36.3025 22.8678 36.3025V27.9942L16.0283 19.1667L19.7111 16.051Z" fill="#FFCB11"/>
<path d="M9.71507 19.3488L5.24426 15.4548C3.95597 14.3313 3.21596 12.7095 3.21596 11.005V3.93492C3.21596 3.46866 2.83572 3.09021 2.36725 3.09021C1.89879 3.09021 1.51855 3.46866 1.51855 3.93492V11.005C1.51855 13.196 2.4691 15.2825 4.12735 16.7269L7.86833 19.9839L4.12735 23.2411C2.46902 24.6855 1.51855 26.7719 1.51855 28.963V36.033C1.51855 36.4993 1.89879 36.8777 2.36725 36.8777C2.83572 36.8777 3.21596 36.4993 3.21596 36.033V28.963C3.21596 27.2584 3.95597 25.6366 5.24426 24.5132L9.71507 20.6192C9.90006 20.4587 10.0053 20.2273 10.0053 19.984C10.0053 19.7407 9.90006 19.5092 9.71507 19.3488Z" fill="#636363"/>
<path d="M23.5834 11.0049V3.93486C23.5834 3.4686 23.2032 3.09015 22.7347 3.09015C22.2663 3.09015 21.886 3.4686 21.886 3.93486V11.0049C21.886 12.7094 21.1477 14.3312 19.8577 15.4547L15.3869 19.3487C15.2019 19.5092 15.0967 19.7407 15.0967 19.9839C15.0967 20.2272 15.2019 20.4587 15.3869 20.6191L19.8577 24.5131C21.146 25.6366 21.886 27.2584 21.886 28.9629V36.033C21.886 36.4992 22.2663 36.8777 22.7347 36.8777C23.2032 36.8777 23.5834 36.4992 23.5834 36.033V28.9629C23.5834 26.7701 22.6329 24.6854 20.9746 23.241L17.2337 19.9839L20.9746 16.7268C22.6329 15.2824 23.5834 13.1961 23.5834 11.0049Z" fill="#636363"/>
<path d="M11.7555 23.5012C12.1557 22.9756 12.9466 22.9756 13.3468 23.5012L20.3634 32.7173C20.8646 33.3756 20.3951 34.323 19.5677 34.323H5.53453C4.70715 34.323 4.23769 33.3756 4.73888 32.7173L11.7555 23.5012Z" fill="#FFCB11"/>
<path d="M13.3323 18.5093C12.9319 19.0113 12.1691 19.0113 11.7687 18.5093L9.11295 15.1796C8.59052 14.5246 9.05691 13.5561 9.89473 13.5561L15.2063 13.5561C16.0441 13.5561 16.5105 14.5246 15.9881 15.1796L13.3323 18.5093Z" fill="#FFCB11"/>
<rect x="0.132812" y="0.700348" width="24.8392" height="2.96671" rx="1.48335" fill="#636363"/>
<rect x="0.131348" y="36.3008" width="24.8392" height="2.96671" rx="1.48335" fill="#636363"/>
<rect width="0.992297" height="7.11868" rx="0.496149" transform="matrix(0.853734 0.52071 -0.524287 0.851542 26.4619 19.8878)" fill="white"/>
<rect width="0.992151" height="5.17306" rx="0.496075" transform="matrix(-0.835157 0.550012 -0.553626 -0.832766 26.606 29.625)" fill="white"/>
</svg>
