<svg width="45" height="45" viewBox="0 0 45 45" fill="none" xmlns="http://www.w3.org/2000/svg">
<path d="M30.4111 26.4784C30.4111 25.3738 31.3066 24.4784 32.4111 24.4784H41.3275C42.4321 24.4784 43.3275 25.3738 43.3275 26.4784V31.3785C43.3275 32.4831 42.4321 33.3785 41.3275 33.3785H32.4111C31.3066 33.3785 30.4111 32.4831 30.4111 31.3785V26.4784Z" fill="#FFCB11"/>
<path d="M42.3339 22.6834V16.5678C42.3339 14.4941 40.7178 12.8076 38.676 12.6441L32.9698 2.72417C32.441 1.80672 31.5871 1.15098 30.5654 0.878695C29.5485 0.608261 28.4851 0.750292 27.575 1.27753L8.01384 12.6122H4.5783C2.38646 12.6122 0.604004 14.3862 0.604004 16.5678V40.3014C0.604004 42.483 2.38637 44.2571 4.5783 44.2571H38.3596C40.5515 44.2571 42.3339 42.4831 42.3339 40.3014V34.1859C43.4879 33.7763 44.321 32.6889 44.321 31.4013V25.4679C44.321 24.1804 43.4879 23.093 42.3339 22.6834ZM36.3669 12.6122H27.707L34.202 8.84856L36.3669 12.6122ZM33.2148 7.13223L23.7576 12.6122H19.8349L32.2339 5.42721L33.2148 7.13223ZM28.5753 2.98682C29.0245 2.7251 29.5494 2.65556 30.0511 2.78888C30.5586 2.92405 31.1417 3.25466 31.4046 3.71144L16.0043 12.6122H11.9633L28.5753 2.98682ZM40.3467 40.3014C40.3467 41.3917 39.455 42.2792 38.3596 42.2792H4.5783C3.4829 42.2792 2.5912 41.3917 2.5912 40.3014V16.5678C2.5912 15.4776 3.4829 14.5901 4.5783 14.5901H38.3596C39.455 14.5901 40.3467 15.4776 40.3467 16.5678V22.5012H34.3853C31.098 22.5012 28.4239 25.1627 28.4239 28.4346C28.4239 31.7065 31.098 34.368 34.3853 34.368H40.3467V40.3014ZM42.3339 31.4013C42.3339 31.9469 41.8886 32.3903 41.3403 32.3903H34.3853C32.1935 32.3903 30.411 30.6163 30.411 28.4346C30.411 26.2531 32.1934 24.479 34.3853 24.479H41.3403C41.8885 24.479 42.3339 24.9222 42.3339 25.4679V31.4013Z" fill="#636363"/>
<path d="M34.3854 9.1504L31.4047 3.71144L16.0044 12.6116H27.9272L34.3854 9.1504Z" fill="#FFCB11"/>
</svg>
